<svg xmlns="http://www.w3.org/2000/svg" xmlns:xlink="http://www.w3.org/1999/xlink" width="32" height="32" viewBox="0 0 32 32"><defs><clipPath id="b"><rect width="32" height="32"/></clipPath></defs><g id="a" clip-path="url(#b)"><g transform="translate(-1.52 -0.829)"><g transform="translate(378 250)"><path d="M -360.4806213378906 -226.6708984375 C -363.8660888671875 -226.6708984375 -367.0448303222656 -227.3786468505859 -369.4313354492188 -228.6637573242188 C -371.7198486328125 -229.8961181640625 -372.9801940917969 -231.4968566894531 -372.9801940917969 -233.1711120605469 C -372.9801940917969 -234.8453674316406 -371.7198486328125 -236.4461059570312 -369.4313354492188 -237.678466796875 C -367.0448303222656 -238.9635772705078 -363.8660888671875 -239.6713256835938 -360.4806213378906 -239.6713256835938 C -357.0948791503906 -239.6713256835938 -353.9158935546875 -238.9635772705078 -351.5292053222656 -237.6784515380859 C -349.2405395507812 -236.4460906982422 -347.9801025390625 -234.8453674316406 -347.9801025390625 -233.1711120605469 C -347.9801025390625 -231.4968566894531 -349.2405395507812 -229.8961334228516 -351.5292053222656 -228.6637725830078 C -353.9158935546875 -227.3786468505859 -357.0948791503906 -226.6708984375 -360.4806213378906 -226.6708984375 Z M -360.4806213378906 -238.6715087890625 C -363.5130310058594 -238.6715087890625 -365.9801025390625 -236.2040405273438 -365.9801025390625 -233.1711120605469 C -365.9801025390625 -230.1386871337891 -363.5130310058594 -227.6716156005859 -360.4806213378906 -227.6716156005859 C -357.4476623535156 -227.6716156005859 -354.9801940917969 -230.1386871337891 -354.9801940917969 -233.1711120605469 C -354.9801940917969 -236.2040405273438 -357.4476623535156 -238.6715087890625 -360.4806213378906 -238.6715087890625 Z" stroke="none"/><path d="M -360.4806213378906 -227.1708984375 C -357.1761779785156 -227.1708984375 -354.0813598632812 -227.857421875 -351.7662658691406 -229.1040191650391 C -350.7080688476562 -229.6737976074219 -349.8515319824219 -230.3526916503906 -349.2892456054688 -231.0673065185547 C -348.7523193359375 -231.7496490478516 -348.4801025390625 -232.4574737548828 -348.4801025390625 -233.1711120605469 C -348.4801025390625 -233.8847503662109 -348.7523193359375 -234.5925750732422 -349.2892456054688 -235.2749176025391 C -349.8515319824219 -235.9895324707031 -350.7080688476562 -236.6684265136719 -351.7662658691406 -237.2382049560547 C -354.068359375 -238.4777984619141 -357.1413269042969 -239.1635894775391 -360.4248657226562 -239.1712493896484 C -357.1417541503906 -239.1412658691406 -354.4801940917969 -236.4611663818359 -354.4801940917969 -233.1711120605469 C -354.4801940917969 -229.8629760742188 -357.1719665527344 -227.1716156005859 -360.4806213378906 -227.1716156005859 C -363.7887573242188 -227.1716156005859 -366.4801025390625 -229.8629760742188 -366.4801025390625 -233.1711120605469 C -366.4801025390625 -236.4611663818359 -363.8189697265625 -239.1412658691406 -360.536376953125 -239.1712493896484 C -363.8196105957031 -239.1635894775391 -366.8923645019531 -238.4777984619141 -369.1942749023438 -237.2382354736328 C -370.2523803710938 -236.6684417724609 -371.1088562011719 -235.9895477294922 -371.6711120605469 -235.2749481201172 C -372.2079772949219 -234.5926055908203 -372.4801940917969 -233.884765625 -372.4801940917969 -233.1711120605469 C -372.4801940917969 -232.4574584960938 -372.2079772949219 -231.7496185302734 -371.6711120605469 -231.0672760009766 C -371.1088562011719 -230.3526763916016 -370.2523803710938 -229.6737823486328 -369.1942749023438 -229.1039886474609 C -366.8793640136719 -227.857421875 -363.7847900390625 -227.1708984375 -360.4806213378906 -227.1708984375 M -360.4806213378906 -226.1708984375 C -367.6485900878906 -226.1708984375 -373.4801940917969 -229.3111877441406 -373.4801940917969 -233.1711120605469 C -373.4801940917969 -237.0310363769531 -367.6485900878906 -240.1713256835938 -360.4806213378906 -240.1713256835938 C -353.3121032714844 -240.1713256835938 -347.4801025390625 -237.0310363769531 -347.4801025390625 -233.1711120605469 C -347.4801025390625 -229.3111877441406 -353.3121032714844 -226.1708984375 -360.4806213378906 -226.1708984375 Z M -360.4806213378906 -238.1715087890625 C -363.2373657226562 -238.1715087890625 -365.4801025390625 -235.9283447265625 -365.4801025390625 -233.1711120605469 C -365.4801025390625 -230.4143829345703 -363.2373657226562 -228.1716156005859 -360.4806213378906 -228.1716156005859 C -357.723388671875 -228.1716156005859 -355.4801940917969 -230.4143829345703 -355.4801940917969 -233.1711120605469 C -355.4801940917969 -235.9283447265625 -357.723388671875 -238.1715087890625 -360.4806213378906 -238.1715087890625 Z" stroke="none"/></g><circle cx="2" cy="2" r="2" transform="translate(15.52 14.829)"/></g></g></svg>